<mxfile host="Electron" modified="2023-11-21T20:54:47.339Z" agent="Mozilla/5.0 (Windows NT 10.0; Win64; x64) AppleWebKit/537.36 (KHTML, like Gecko) draw.io/22.0.3 Chrome/114.0.5735.289 Electron/25.8.4 Safari/537.36" etag="wHUrXdSvSbFRXdjv0TLS" version="22.0.3" type="device">
  <diagram name="Pagina-1" id="ZR_6BwqGiIvRILRJ7GTZ">
    <mxGraphModel dx="2245" dy="828" grid="1" gridSize="10" guides="1" tooltips="1" connect="1" arrows="1" fold="1" page="1" pageScale="1" pageWidth="827" pageHeight="1169" math="0" shadow="0">
      <root>
        <mxCell id="0" />
        <mxCell id="1" parent="0" />
        <mxCell id="5pUIbExQR0g4jcvAmIpD-1" value="ESAME" style="rounded=0;whiteSpace=wrap;html=1;fillColor=#1ba1e2;strokeColor=#006EAF;fontColor=#ffffff;" vertex="1" parent="1">
          <mxGeometry x="580" y="370" width="120" height="60" as="geometry" />
        </mxCell>
        <mxCell id="5pUIbExQR0g4jcvAmIpD-2" value="sostenimento&lt;br&gt;(esame superato)" style="rhombus;whiteSpace=wrap;html=1;fillColor=#ffff88;strokeColor=#36393d;" vertex="1" parent="1">
          <mxGeometry x="320" y="375" width="150" height="50" as="geometry" />
        </mxCell>
        <mxCell id="5pUIbExQR0g4jcvAmIpD-3" value="STUDENTE" style="rounded=0;whiteSpace=wrap;html=1;fillColor=#1ba1e2;strokeColor=#006EAF;fontColor=#ffffff;" vertex="1" parent="1">
          <mxGeometry x="90" y="370" width="120" height="60" as="geometry" />
        </mxCell>
        <mxCell id="5pUIbExQR0g4jcvAmIpD-4" value="- &lt;font color=&quot;#0000c7&quot;&gt;matricola&lt;/font&gt;&lt;br&gt;- nome&lt;br&gt;- cognome&lt;br&gt;- corso_di_laurea" style="text;html=1;strokeColor=#d79b00;fillColor=#ffe6cc;align=left;verticalAlign=middle;whiteSpace=wrap;rounded=0;" vertex="1" parent="1">
          <mxGeometry x="-10" y="415" width="120" height="65" as="geometry" />
        </mxCell>
        <mxCell id="5pUIbExQR0g4jcvAmIpD-5" value="&lt;div style=&quot;&quot;&gt;- materia&lt;/div&gt;&lt;div style=&quot;&quot;&gt;- data_esame&lt;/div&gt;&lt;div style=&quot;&quot;&gt;- num_crediti&lt;/div&gt;&lt;div style=&quot;&quot;&gt;- scritto_orale&lt;/div&gt;&lt;div style=&quot;&quot;&gt;- &lt;font color=&quot;#0000c7&quot;&gt;codice_esame&lt;/font&gt;&lt;/div&gt;&lt;div style=&quot;&quot;&gt;&lt;br&gt;&lt;/div&gt;" style="text;html=1;strokeColor=#d79b00;fillColor=#ffe6cc;align=left;verticalAlign=middle;whiteSpace=wrap;rounded=0;" vertex="1" parent="1">
          <mxGeometry x="670" y="415" width="120" height="85" as="geometry" />
        </mxCell>
        <mxCell id="5pUIbExQR0g4jcvAmIpD-6" value="&lt;div style=&quot;&quot;&gt;- voto&lt;/div&gt;" style="text;html=1;strokeColor=#d79b00;fillColor=#ffe6cc;align=left;verticalAlign=middle;whiteSpace=wrap;rounded=0;" vertex="1" parent="1">
          <mxGeometry x="414" y="415" width="56" height="15" as="geometry" />
        </mxCell>
        <mxCell id="5pUIbExQR0g4jcvAmIpD-7" value="" style="endArrow=none;html=1;rounded=0;" edge="1" parent="1" source="5pUIbExQR0g4jcvAmIpD-3">
          <mxGeometry width="50" height="50" relative="1" as="geometry">
            <mxPoint x="390" y="450" as="sourcePoint" />
            <mxPoint x="320" y="400" as="targetPoint" />
          </mxGeometry>
        </mxCell>
        <mxCell id="5pUIbExQR0g4jcvAmIpD-8" value="" style="endArrow=none;html=1;rounded=0;entryX=0;entryY=0.5;entryDx=0;entryDy=0;" edge="1" parent="1" target="5pUIbExQR0g4jcvAmIpD-1">
          <mxGeometry width="50" height="50" relative="1" as="geometry">
            <mxPoint x="574.9140392320892" y="397.8323779025777" as="sourcePoint" />
            <mxPoint x="590" y="399.5" as="targetPoint" />
          </mxGeometry>
        </mxCell>
        <mxCell id="5pUIbExQR0g4jcvAmIpD-9" value="sostenuto da&lt;br&gt;(min 0, max n)&lt;br&gt;&lt;font style=&quot;font-size: 10px;&quot;&gt;cardinalità&lt;/font&gt;" style="text;html=1;strokeColor=none;fillColor=none;align=center;verticalAlign=middle;whiteSpace=wrap;rounded=0;" vertex="1" parent="1">
          <mxGeometry x="500" y="374.5" width="80" height="30" as="geometry" />
        </mxCell>
        <mxCell id="5pUIbExQR0g4jcvAmIpD-10" value="" style="endArrow=classic;html=1;rounded=0;" edge="1" parent="1">
          <mxGeometry width="50" height="50" relative="1" as="geometry">
            <mxPoint x="282" y="395" as="sourcePoint" />
            <mxPoint x="302" y="395" as="targetPoint" />
          </mxGeometry>
        </mxCell>
        <mxCell id="5pUIbExQR0g4jcvAmIpD-11" value="" style="endArrow=classic;html=1;rounded=0;" edge="1" parent="1">
          <mxGeometry width="50" height="50" relative="1" as="geometry">
            <mxPoint x="502" y="393" as="sourcePoint" />
            <mxPoint x="482" y="393" as="targetPoint" />
          </mxGeometry>
        </mxCell>
        <mxCell id="5pUIbExQR0g4jcvAmIpD-12" value="" style="endArrow=none;html=1;rounded=0;exitX=1;exitY=0.5;exitDx=0;exitDy=0;" edge="1" parent="1" source="5pUIbExQR0g4jcvAmIpD-3" target="5pUIbExQR0g4jcvAmIpD-13">
          <mxGeometry width="50" height="50" relative="1" as="geometry">
            <mxPoint x="210" y="400" as="sourcePoint" />
            <mxPoint x="320" y="400" as="targetPoint" />
          </mxGeometry>
        </mxCell>
        <mxCell id="5pUIbExQR0g4jcvAmIpD-13" value="sostiene&lt;br&gt;(min 0, max n) &lt;font style=&quot;font-size: 8px;&quot;&gt;cardinalità&lt;/font&gt;" style="text;html=1;strokeColor=none;fillColor=none;align=center;verticalAlign=middle;whiteSpace=wrap;rounded=0;" vertex="1" parent="1">
          <mxGeometry x="210" y="372" width="80" height="35" as="geometry" />
        </mxCell>
        <mxCell id="5pUIbExQR0g4jcvAmIpD-16" value="" style="endArrow=none;html=1;rounded=0;exitX=0.952;exitY=0.441;exitDx=0;exitDy=0;exitPerimeter=0;" edge="1" parent="1" source="5pUIbExQR0g4jcvAmIpD-2" target="5pUIbExQR0g4jcvAmIpD-1">
          <mxGeometry width="50" height="50" relative="1" as="geometry">
            <mxPoint x="470" y="400" as="sourcePoint" />
            <mxPoint x="580" y="400" as="targetPoint" />
          </mxGeometry>
        </mxCell>
      </root>
    </mxGraphModel>
  </diagram>
</mxfile>
